# xmcd CD database file
#
# Track frame offsets:
#	150
#	15910
#	29477
#	46320
#	61025
#	77052
#	96105
#	114775
#	129112
#	145452
#	162272
#	179157
#	193747
#
# Disc length: 2818 seconds
#
# Revision: 4
# Processed by: cddbd v1.4PL0 Copyright (c) Steve Scherf et al.
# Submitted via: CDex 1.50Beta3
#
DISCID=a30b000d
DTITLE=Marcella Detroit - Feeler
DYEAR=1996
DGENRE=Rock
TTITLE0=Boy
TTITLE1=Flower
TTITLE2=I Hate You Now
TTITLE3=Miss Anne Throp
TTITLE4=Elaine's Addiction
TTITLE5=Without Medication
TTITLE6=Somebody's Mother
TTITLE7=Kidd
TTITLE8=Gasoline
TTITLE9=Scared Silent
TTITLE10=The Same Father
TTITLE11=Waiting 4
TTITLE12=Sunday
EXTD=YEAR: 1996
EXTT0=
EXTT1=
EXTT2=
EXTT3=
EXTT4=
EXTT5=
EXTT6=
EXTT7=
EXTT8=
EXTT9=
EXTT10=
EXTT11=
EXTT12=
PLAYORDER=
